<svg width="11" height="18" viewBox="0 0 11 18" fill="none" xmlns="http://www.w3.org/2000/svg">
<path d="M7.80347 3.79932H10.0641C10.2721 3.79932 10.4409 3.64026 10.4409 3.44428V1.31403C10.4409 1.11804 10.2721 0.958984 10.0641 0.958984H7.80347C5.51868 0.958984 3.65889 2.71076 3.65889 4.86445V7.34975H1.02143C0.813451 7.34975 0.644653 7.50881 0.644653 7.70479V9.83505C0.644653 10.031 0.813451 10.1901 1.02143 10.1901H3.65889V17.646C3.65889 17.842 3.82769 18.001 4.03567 18.001H6.29635C6.50433 18.001 6.67313 17.842 6.67313 17.646V10.1901H9.31059C9.4726 10.1901 9.61653 10.0921 9.66853 9.94724L10.4221 7.81699C10.4605 7.70905 10.4409 7.58976 10.3701 7.49674C10.2985 7.40443 10.1855 7.34975 10.0641 7.34975H6.67313V4.86445C6.67313 4.27721 7.18027 3.79932 7.80347 3.79932Z" fill="white"/>
</svg>
