<svg width="18" height="18" viewBox="0 0 18 18" fill="none" xmlns="http://www.w3.org/2000/svg">
<path d="M2.64052 5.12943C3.79216 5.12943 4.72574 4.19584 4.72574 3.04421C4.72574 1.89257 3.79216 0.958984 2.64052 0.958984C1.48888 0.958984 0.555298 1.89257 0.555298 3.04421C0.555298 4.19584 1.48888 5.12943 2.64052 5.12943Z" fill="white"/>
<path d="M4.37821 6.52344H0.902835C0.710995 6.52344 0.555298 6.67913 0.555298 6.87097V17.2971C0.555298 17.4889 0.710995 17.6446 0.902835 17.6446H4.37821C4.57005 17.6446 4.72574 17.4889 4.72574 17.2971V6.87097C4.72574 6.67913 4.57005 6.52344 4.37821 6.52344Z" fill="white"/>
<path d="M14.7346 5.94277C13.2493 5.43398 11.3913 5.88091 10.2771 6.68233C10.2389 6.53289 10.1027 6.42168 9.94071 6.42168H6.46534C6.27349 6.42168 6.1178 6.57737 6.1178 6.76921V17.1953C6.1178 17.3872 6.27349 17.5429 6.46534 17.5429H9.94071C10.1325 17.5429 10.2882 17.3872 10.2882 17.1953V9.70243C10.8499 9.21866 11.5734 9.06435 12.1656 9.31597C12.7398 9.55855 13.0685 10.1508 13.0685 10.9397V17.1953C13.0685 17.3872 13.2242 17.5429 13.4161 17.5429H16.8915C17.0833 17.5429 17.239 17.3872 17.239 17.1953V10.2397C17.1994 7.38366 15.8558 6.32645 14.7346 5.94277Z" fill="white"/>
</svg>
