<svg width="52" height="52" viewBox="0 0 52 52" fill="none" xmlns="http://www.w3.org/2000/svg">
<path opacity="0.25" fill-rule="evenodd" clip-rule="evenodd" d="M26.2858 50.6928C39.8706 50.6928 50.8832 39.6802 50.8832 26.0954C50.8832 12.5107 39.8706 1.49805 26.2858 1.49805C12.7011 1.49805 1.68848 12.5107 1.68848 26.0954C1.68848 39.6802 12.7011 50.6928 26.2858 50.6928Z" stroke="white" stroke-width="2.10835"/>
<path d="M20.6405 21.1294C21.7922 21.1294 22.7257 20.1958 22.7257 19.0442C22.7257 17.8926 21.7922 16.959 20.6405 16.959C19.4889 16.959 18.5553 17.8926 18.5553 19.0442C18.5553 20.1958 19.4889 21.1294 20.6405 21.1294Z" fill="white"/>
<path d="M22.3782 22.5234H18.9028C18.711 22.5234 18.5553 22.6791 18.5553 22.871V33.2971C18.5553 33.4889 18.711 33.6446 18.9028 33.6446H22.3782C22.57 33.6446 22.7257 33.4889 22.7257 33.2971V22.871C22.7257 22.6791 22.57 22.5234 22.3782 22.5234Z" fill="white"/>
<path d="M32.7346 21.9428C31.2493 21.434 29.3913 21.8809 28.2771 22.6823C28.2389 22.5329 28.1027 22.4217 27.9407 22.4217H24.4653C24.2735 22.4217 24.1178 22.5774 24.1178 22.7692V33.1953C24.1178 33.3872 24.2735 33.5429 24.4653 33.5429H27.9407C28.1325 33.5429 28.2882 33.3872 28.2882 33.1953V25.7024C28.8499 25.2187 29.5734 25.0644 30.1656 25.316C30.7398 25.5585 31.0685 26.1508 31.0685 26.9397V33.1953C31.0685 33.3872 31.2242 33.5429 31.4161 33.5429H34.8915C35.0833 33.5429 35.239 33.3872 35.239 33.1953V26.2397C35.1994 23.3837 33.8558 22.3265 32.7346 21.9428Z" fill="white"/>
</svg>
