<svg width="18" height="16" viewBox="0 0 18 16" fill="none" xmlns="http://www.w3.org/2000/svg">
<path d="M17.8825 2.54712C17.7683 2.41811 17.5843 2.38566 17.4333 2.46523C17.3394 2.51467 17.1629 2.57956 16.9534 2.64368C17.2178 2.28215 17.4303 1.87735 17.5242 1.5135C17.5648 1.35668 17.5054 1.19136 17.3762 1.09789C17.2471 1.00519 17.0751 1.00519 16.9459 1.09789C16.7424 1.2439 15.76 1.68268 15.1389 1.82482C13.7352 0.560225 12.1016 0.428898 10.4035 1.44861C9.02306 2.27751 8.72264 3.96313 8.78122 4.99056C5.62156 4.6777 3.65756 2.96118 2.55201 1.54054C2.47466 1.44089 2.34998 1.38835 2.23282 1.39608C2.10965 1.40535 1.99849 1.47565 1.9354 1.58457C1.41267 2.49227 1.26772 3.49576 1.51782 4.48689C1.65451 5.02764 1.89334 5.50428 2.17048 5.89054C2.03754 5.82333 1.90911 5.73913 1.7882 5.6387C1.67704 5.54445 1.52157 5.52669 1.39014 5.58926C1.25946 5.65338 1.17609 5.78934 1.17609 5.93843C1.17609 7.64027 2.21104 8.77586 3.17764 9.36915C3.02142 9.34983 2.85844 9.3143 2.69396 9.26254C2.55276 9.21851 2.39955 9.26254 2.30191 9.37687C2.20428 9.49043 2.18099 9.65266 2.24183 9.79094C2.78484 11.0262 3.81378 11.8759 5.08681 12.1842C3.97525 12.8555 2.48742 13.1846 1.12502 13.0231C0.948521 12.9976 0.780286 13.1127 0.724708 13.2873C0.669131 13.4619 0.741983 13.6535 0.89745 13.7431C2.96434 14.9366 4.83295 15.363 6.44771 15.363C8.79775 15.363 10.6115 14.4608 11.7156 13.706C14.692 11.6743 16.5471 8.02653 16.2887 4.76267C16.7656 4.40037 17.4791 3.73137 17.9215 3.01217C18.0131 2.86694 17.9966 2.67535 17.8825 2.54712Z" fill="white"/>
</svg>
