<svg width="23" height="15" viewBox="0 0 23 15" fill="none" xmlns="http://www.w3.org/2000/svg">
<path d="M22.0417 5.30461C22.0891 3.9329 21.7891 2.57146 21.1696 1.34669C20.7493 0.84414 20.166 0.504997 19.5213 0.388358C16.8548 0.146403 14.1772 0.0472336 11.5001 0.0912746C8.83269 0.0452347 6.16475 0.141204 3.50757 0.378775C2.98223 0.474337 2.49606 0.720748 2.1084 1.08794C1.2459 1.88336 1.15007 3.24419 1.05423 4.39419C0.915191 6.46186 0.915191 8.53653 1.05423 10.6042C1.08196 11.2515 1.17833 11.8939 1.34173 12.5209C1.45728 13.0049 1.69107 13.4527 2.02215 13.8242C2.41245 14.2108 2.90993 14.4713 3.45007 14.5717C5.51615 14.8267 7.59794 14.9324 9.67923 14.8879C13.0334 14.9359 15.9755 14.8879 19.4542 14.6196C20.0076 14.5254 20.5191 14.2646 20.9205 13.8721C21.1888 13.6037 21.3892 13.2752 21.5051 12.9138C21.8478 11.8621 22.0161 10.7615 22.0034 9.65544C22.0417 9.11877 22.0417 5.87961 22.0417 5.30461ZM9.33423 10.2304V4.29836L15.0076 7.27878C13.4167 8.16044 11.318 9.15711 9.33423 10.2304Z" fill="white"/>
</svg>
