<svg width="427" height="204" viewBox="0 0 427 204" fill="none" xmlns="http://www.w3.org/2000/svg">
<g filter="url(#filter0_d_1107_141)">
<path d="M28.521 34.5555H69.8233C80.5475 34.5555 90.0156 36.7294 98.2278 41.077C106.44 45.328 112.816 51.318 117.357 59.0471C121.898 66.6796 124.169 75.4232 124.169 85.2778C124.169 95.1324 121.898 103.924 117.357 111.653C112.816 119.286 106.44 125.276 98.2278 129.623C90.0156 133.874 80.5475 136 69.8233 136H28.521L28.521 34.5555ZM69.2437 126.725C78.1321 126.725 85.9095 124.986 92.5759 121.508C99.2422 117.933 104.411 113.054 108.082 106.871C111.754 100.591 113.589 93.3933 113.589 85.2778C113.589 77.1622 111.754 70.0128 108.082 63.8295C104.411 57.5496 99.2422 52.6706 92.5759 49.1925C85.9095 45.6178 78.1321 43.8305 69.2437 43.8305H39.2451V126.725H69.2437ZM154.047 34.5555H164.771V136H154.047V34.5555ZM288.353 34.5555V136H279.513L214.299 53.6851V136H203.575V34.5555H212.415L277.774 116.87V34.5555H288.353ZM398.997 126.725V136H327.261V34.5555H396.823V43.8305H337.985V79.9157H390.447V89.0457H337.985V126.725H398.997Z" fill="url(#paint0_linear_1107_141)"/>
<path d="M28.521 34.5555V32.1481H26.1135V34.5555H28.521ZM98.2278 41.077L97.1014 43.2046L97.1112 43.2098L97.1211 43.2149L98.2278 41.077ZM117.357 59.0471L115.282 60.2666L115.288 60.278L117.357 59.0471ZM117.357 111.653L119.426 112.884L119.433 112.873L117.357 111.653ZM98.2278 129.623L99.3345 131.761L99.3444 131.756L99.3542 131.751L98.2278 129.623ZM28.521 136H26.1135V138.407H28.521V136ZM92.5759 121.508L93.6895 123.642L93.7016 123.636L93.7136 123.63L92.5759 121.508ZM108.082 106.871L110.152 108.1L110.157 108.093L110.161 108.086L108.082 106.871ZM108.082 63.8295L106.004 65.0445L106.008 65.0516L106.012 65.0586L108.082 63.8295ZM92.5759 49.1925L91.4382 51.3142L91.4502 51.3206L91.4623 51.3269L92.5759 49.1925ZM39.2451 43.8305V41.4231H36.8377V43.8305H39.2451ZM39.2451 126.725H36.8377V129.132H39.2451V126.725ZM28.521 36.963H69.8233V32.1481H28.521V36.963ZM69.8233 36.963C80.2157 36.963 89.2863 39.0672 97.1014 43.2046L99.3542 38.9493C90.7449 34.3915 80.8793 32.1481 69.8233 32.1481V36.963ZM97.1211 43.2149C104.944 47.2642 110.978 52.9417 115.282 60.2666L119.433 57.8277C114.655 49.6944 107.936 43.3918 99.3345 38.939L97.1211 43.2149ZM115.288 60.278C119.584 67.4983 121.761 75.8077 121.761 85.2778H126.576C126.576 75.0387 124.212 65.8609 119.426 57.8162L115.288 60.278ZM121.761 85.2778C121.761 94.7474 119.584 103.11 115.282 110.434L119.433 112.873C124.212 104.738 126.576 95.5173 126.576 85.2778H121.761ZM115.288 110.422C110.984 117.657 104.942 123.345 97.1014 127.496L99.3542 131.751C107.938 127.207 114.649 120.914 119.426 112.884L115.288 110.422ZM97.1211 127.486C89.3018 131.533 80.224 133.593 69.8233 133.593V138.407C80.8709 138.407 90.7294 136.216 99.3345 131.761L97.1211 127.486ZM69.8233 133.593H28.521V138.407H69.8233V133.593ZM30.9284 136L30.9284 34.5555H26.1135V136H30.9284ZM69.2437 129.132C78.4495 129.132 86.6219 127.33 93.6895 123.642L91.4623 119.374C85.1972 122.642 77.8148 124.318 69.2437 124.318V129.132ZM93.7136 123.63C100.745 119.859 106.246 114.68 110.152 108.1L106.012 105.642C102.577 111.428 97.7392 116.007 91.4382 119.386L93.7136 123.63ZM110.161 108.086C114.072 101.396 115.997 93.7698 115.997 85.2778H111.182C111.182 93.0169 109.436 99.786 106.004 105.656L110.161 108.086ZM115.997 85.2778C115.997 76.7865 114.072 69.2017 110.152 62.6004L106.012 65.0586C109.436 70.8239 111.182 77.5379 111.182 85.2778H115.997ZM110.161 62.6145C106.253 55.9299 100.743 50.7384 93.6895 47.0582L91.4623 51.3269C97.7412 54.6029 102.569 59.1694 106.004 65.0445L110.161 62.6145ZM93.7136 47.0709C86.6408 43.2782 78.4595 41.4231 69.2437 41.4231V46.2379C77.8047 46.2379 85.1783 47.9574 91.4382 51.3142L93.7136 47.0709ZM69.2437 41.4231H39.2451V46.2379H69.2437V41.4231ZM36.8377 43.8305V126.725H41.6525V43.8305H36.8377ZM39.2451 129.132H69.2437V124.318H39.2451V129.132ZM154.047 34.5555V32.1481H151.64V34.5555H154.047ZM164.771 34.5555H167.179V32.1481H164.771V34.5555ZM164.771 136V138.407H167.179V136H164.771ZM154.047 136H151.64V138.407H154.047V136ZM154.047 36.963H164.771V32.1481H154.047V36.963ZM162.364 34.5555V136H167.179V34.5555H162.364ZM164.771 133.593H154.047V138.407H164.771V133.593ZM156.455 136V34.5555H151.64V136H156.455ZM288.353 34.5555H290.761V32.1481H288.353V34.5555ZM288.353 136V138.407H290.761V136H288.353ZM279.513 136L277.626 137.495L278.349 138.407H279.513V136ZM214.299 53.6851L216.186 52.1901L211.892 46.7696V53.6851H214.299ZM214.299 136V138.407H216.706V136H214.299ZM203.575 136H201.167V138.407H203.575V136ZM203.575 34.5555V32.1481H201.167V34.5555H203.575ZM212.415 34.5555L214.3 33.0585L213.578 32.1481H212.415V34.5555ZM277.774 116.87L275.889 118.367L280.182 123.774V116.87H277.774ZM277.774 34.5555V32.1481H275.367V34.5555H277.774ZM285.946 34.5555V136H290.761V34.5555H285.946ZM288.353 133.593H279.513V138.407H288.353V133.593ZM281.4 134.505L216.186 52.1901L212.412 55.18L277.626 137.495L281.4 134.505ZM211.892 53.6851V136H216.706V53.6851H211.892ZM214.299 133.593H203.575V138.407H214.299V133.593ZM205.982 136V34.5555H201.167V136H205.982ZM203.575 36.963H212.415V32.1481H203.575V36.963ZM210.53 36.0526L275.889 118.367L279.66 115.373L214.3 33.0585L210.53 36.0526ZM280.182 116.87V34.5555H275.367V116.87H280.182ZM277.774 36.963H288.353V32.1481H277.774V36.963ZM398.997 126.725H401.404V124.318H398.997V126.725ZM398.997 136V138.407H401.404V136H398.997ZM327.261 136H324.854V138.407H327.261V136ZM327.261 34.5555V32.1481H324.854V34.5555H327.261ZM396.823 34.5555H399.231V32.1481H396.823V34.5555ZM396.823 43.8305V46.2379H399.231V43.8305H396.823ZM337.985 43.8305V41.4231H335.578V43.8305H337.985ZM337.985 79.9157H335.578V82.3231H337.985V79.9157ZM390.447 79.9157H392.854V77.5083H390.447V79.9157ZM390.447 89.0457V91.4531H392.854V89.0457H390.447ZM337.985 89.0457V86.6383H335.578V89.0457H337.985ZM337.985 126.725H335.578V129.132H337.985V126.725ZM396.59 126.725V136H401.404V126.725H396.59ZM398.997 133.593H327.261V138.407H398.997V133.593ZM329.669 136V34.5555H324.854V136H329.669ZM327.261 36.963H396.823V32.1481H327.261V36.963ZM394.416 34.5555V43.8305H399.231V34.5555H394.416ZM396.823 41.4231H337.985V46.2379H396.823V41.4231ZM335.578 43.8305V79.9157H340.393V43.8305H335.578ZM337.985 82.3231H390.447V77.5083H337.985V82.3231ZM388.039 79.9157V89.0457H392.854V79.9157H388.039ZM390.447 86.6383H337.985V91.4531H390.447V86.6383ZM335.578 89.0457V126.725H340.393V89.0457H335.578ZM337.985 129.132H398.997V124.318H337.985V129.132Z" fill="url(#paint1_linear_1107_141)"/>
</g>
<g filter="url(#filter1_d_1107_141)">
<path d="M161.449 170.345C162.213 170.345 162.801 170.698 163.212 171.403C163.682 172.108 163.917 173.078 163.917 174.311C163.917 176.603 163.359 178.425 162.243 179.776C158.952 183.713 155.75 186.474 152.636 188.061C149.58 189.647 145.878 190.441 141.53 190.441C138.475 190.441 135.654 190.059 133.069 189.295C130.484 188.531 127.34 187.385 123.638 185.858C120.465 184.506 117.645 183.419 115.177 182.596C112.474 185.534 110.036 187.591 107.862 188.766C105.687 189.882 103.396 190.441 100.987 190.441C97.755 190.441 95.1697 189.706 93.2306 188.237C91.2916 186.71 90.3221 184.741 90.3221 182.332C90.3221 180.51 90.9097 178.836 92.0848 177.308C93.3188 175.78 95.0228 174.576 97.1968 173.694C99.3709 172.813 101.898 172.372 104.777 172.372C106.422 172.372 107.656 172.402 108.478 172.461C119.995 158.123 130.395 142.993 139.679 127.07C134.626 126.188 129.485 125.747 124.255 125.747C117.498 125.747 112.533 126.541 109.36 128.127C106.246 129.655 104.689 132.093 104.689 135.443C104.689 136.442 104.806 137.294 105.041 137.999C105.276 138.704 105.629 139.526 106.099 140.466C106.628 141.524 106.892 142.288 106.892 142.758C106.892 143.933 106.334 144.932 105.217 145.755C104.16 146.519 102.926 146.901 101.516 146.901C100.047 146.901 98.8421 146.46 97.9019 145.578C96.7855 144.58 95.8748 143.228 95.1697 141.524C94.5233 139.761 94.2001 137.793 94.2001 135.619C94.2001 128.744 97.0499 123.662 102.75 120.371C108.449 117.081 115.97 115.435 125.313 115.435C129.955 115.435 134.685 115.7 139.503 116.229C144.38 116.757 148.934 117.609 153.164 118.785C154.927 119.255 156.102 119.93 156.69 120.812C157.278 121.634 157.571 122.721 157.571 124.073C157.571 125.659 157.16 126.893 156.337 127.775C155.515 128.656 154.369 129.097 152.9 129.097H152.283C145.937 139.438 139.503 149.368 132.981 158.887C127.751 166.467 124.079 171.609 121.964 174.311C125.372 175.075 128.339 175.78 130.866 176.427C133.98 177.249 136.477 177.866 138.357 178.278C140.296 178.63 141.971 178.806 143.381 178.806C146.789 178.806 149.698 178.248 152.107 177.132C154.575 175.957 156.896 174.106 159.07 171.579C159.775 170.757 160.568 170.345 161.449 170.345ZM205.19 162.942C205.954 162.942 206.541 163.324 206.953 164.087C207.364 164.851 207.57 165.821 207.57 166.996C207.57 169.816 206.718 171.491 205.014 172.02C201.488 173.254 197.61 173.959 193.379 174.135C192.263 179.071 190.06 183.037 186.769 186.034C183.479 188.972 179.747 190.441 175.576 190.441C172.05 190.441 169.024 189.589 166.497 187.885C164.029 186.181 162.149 183.918 160.857 181.098C159.564 178.278 158.917 175.222 158.917 171.932C158.917 167.466 159.769 163.5 161.473 160.033C163.177 156.508 165.528 153.775 168.525 151.836C171.521 149.838 174.841 148.84 178.484 148.84C182.95 148.84 186.534 150.397 189.237 153.511C191.999 156.566 193.614 160.356 194.085 164.881C196.846 164.704 200.137 164.117 203.956 163.118C204.426 163 204.837 162.942 205.19 162.942ZM176.281 181.098C178.161 181.098 179.777 180.334 181.128 178.806C182.538 177.279 183.479 175.075 183.949 172.196C182.127 170.962 180.717 169.346 179.718 167.349C178.778 165.351 178.308 163.235 178.308 161.003C178.308 160.062 178.396 159.122 178.572 158.182H178.132C175.781 158.182 173.813 159.328 172.226 161.62C170.699 163.852 169.935 167.025 169.935 171.138C169.935 174.37 170.552 176.838 171.786 178.542C173.078 180.246 174.577 181.098 176.281 181.098ZM204.5 190.441C202.267 190.441 200.681 189.266 199.74 186.915C198.859 184.565 198.418 180.804 198.418 175.634C198.418 167.995 199.505 160.738 201.68 153.863C202.208 152.159 203.06 150.926 204.236 150.162C205.469 149.339 207.173 148.928 209.348 148.928C210.523 148.928 211.345 149.075 211.815 149.368C212.285 149.662 212.52 150.22 212.52 151.043C212.52 151.983 212.08 154.098 211.198 157.389C210.611 159.739 210.141 161.796 209.788 163.559C209.436 165.321 209.142 167.495 208.907 170.081C210.846 165.028 213.02 160.914 215.429 157.742C217.838 154.569 220.188 152.306 222.48 150.955C224.83 149.603 226.975 148.928 228.914 148.928C232.733 148.928 234.643 150.837 234.643 154.657C234.643 156.948 233.997 161.091 232.704 167.084C231.588 172.196 231.029 175.575 231.029 177.22C231.029 179.57 231.881 180.746 233.585 180.746C234.761 180.746 236.141 180.04 237.728 178.63C239.373 177.161 241.547 174.811 244.25 171.579C244.955 170.757 245.748 170.345 246.63 170.345C247.394 170.345 247.981 170.698 248.393 171.403C248.863 172.108 249.098 173.078 249.098 174.311C249.098 176.662 248.54 178.483 247.423 179.776C244.896 182.89 242.164 185.446 239.226 187.444C236.347 189.442 233.057 190.441 229.355 190.441C226.358 190.441 224.096 189.589 222.568 187.885C221.04 186.122 220.277 183.595 220.277 180.305C220.277 178.66 220.688 175.722 221.511 171.491C222.274 167.789 222.656 165.233 222.656 163.823C222.656 162.883 222.333 162.413 221.687 162.413C220.923 162.413 219.836 163.412 218.426 165.41C217.074 167.349 215.664 169.934 214.195 173.166C212.785 176.397 211.639 179.805 210.758 183.39C210.111 186.151 209.348 188.032 208.466 189.03C207.644 189.971 206.321 190.441 204.5 190.441ZM271.757 172.989C272.521 172.989 273.109 173.342 273.52 174.047C273.99 174.752 274.225 175.722 274.225 176.956C274.225 179.071 273.726 180.892 272.727 182.42C271.082 184.947 268.908 186.915 266.205 188.325C263.561 189.736 260.388 190.441 256.686 190.441C251.045 190.441 246.668 188.766 243.553 185.417C240.439 182.009 238.882 177.426 238.882 171.667C238.882 167.613 239.734 163.852 241.438 160.386C243.142 156.86 245.492 154.069 248.489 152.013C251.544 149.956 254.982 148.928 258.801 148.928C262.209 148.928 264.941 149.956 266.998 152.013C269.055 154.01 270.083 156.743 270.083 160.209C270.083 164.264 268.614 167.76 265.676 170.698C262.797 173.577 257.861 175.869 250.869 177.573C252.279 180.275 254.659 181.627 258.008 181.627C260.417 181.627 262.385 181.069 263.913 179.952C265.5 178.836 267.321 176.956 269.378 174.311C270.083 173.43 270.876 172.989 271.757 172.989ZM257.303 157.565C255.129 157.565 253.278 158.829 251.75 161.355C250.281 163.882 249.547 166.937 249.547 170.522V170.698C253.013 169.875 255.746 168.641 257.744 166.996C259.741 165.351 260.74 163.441 260.74 161.267C260.74 160.151 260.417 159.269 259.771 158.623C259.183 157.918 258.36 157.565 257.303 157.565Z" fill="#ED1F98"/>
</g>
<defs>
<filter id="filter0_d_1107_141" x="0.835779" y="6.87036" width="425.846" height="156.815" filterUnits="userSpaceOnUse" color-interpolation-filters="sRGB">
<feFlood flood-opacity="0" result="BackgroundImageFix"/>
<feColorMatrix in="SourceAlpha" type="matrix" values="0 0 0 0 0 0 0 0 0 0 0 0 0 0 0 0 0 0 127 0" result="hardAlpha"/>
<feOffset/>
<feGaussianBlur stdDeviation="13.8426"/>
<feComposite in2="hardAlpha" operator="out"/>
<feColorMatrix type="matrix" values="0 0 0 0 0.894118 0 0 0 0 0.756863 0 0 0 0 0.447059 0 0 0 0.23 0"/>
<feBlend mode="normal" in2="BackgroundImageFix" result="effect1_dropShadow_1107_141"/>
<feBlend mode="normal" in="SourceGraphic" in2="effect1_dropShadow_1107_141" result="shape"/>
</filter>
<filter id="filter1_d_1107_141" x="78.0807" y="103.194" width="208.386" height="99.4881" filterUnits="userSpaceOnUse" color-interpolation-filters="sRGB">
<feFlood flood-opacity="0" result="BackgroundImageFix"/>
<feColorMatrix in="SourceAlpha" type="matrix" values="0 0 0 0 0 0 0 0 0 0 0 0 0 0 0 0 0 0 127 0" result="hardAlpha"/>
<feOffset/>
<feGaussianBlur stdDeviation="6.12069"/>
<feComposite in2="hardAlpha" operator="out"/>
<feColorMatrix type="matrix" values="0 0 0 0 0.85098 0 0 0 0 0.00784314 0 0 0 0 0.501961 0 0 0 1 0"/>
<feBlend mode="normal" in2="BackgroundImageFix" result="effect1_dropShadow_1107_141"/>
<feBlend mode="normal" in="SourceGraphic" in2="effect1_dropShadow_1107_141" result="shape"/>
</filter>
<linearGradient id="paint0_linear_1107_141" x1="210" y1="27" x2="210" y2="129.6" gradientUnits="userSpaceOnUse">
<stop stop-color="#FAFFF3"/>
<stop offset="0.270481" stop-color="#E8C473"/>
<stop offset="0.435804" stop-color="#D9B568"/>
<stop offset="0.476216" stop-color="#C49013"/>
<stop offset="0.626842" stop-color="#E6D76D"/>
<stop offset="0.814873" stop-color="white"/>
<stop offset="1" stop-color="#DBB554"/>
</linearGradient>
<linearGradient id="paint1_linear_1107_141" x1="196.554" y1="21" x2="203.173" y2="129.248" gradientUnits="userSpaceOnUse">
<stop stop-color="#755F22"/>
<stop offset="0.519449" stop-color="white"/>
<stop offset="1" stop-color="#77632A"/>
</linearGradient>
</defs>
</svg>
