<svg width="85" height="63" viewBox="0 0 85 63" fill="none" xmlns="http://www.w3.org/2000/svg">
<g clip-path="url(#clip0_1107_59)">
<path d="M13.3761 44.9941L15.0959 45.1578C15.0959 45.6773 15.1224 46.1611 15.0959 46.6429C14.8462 50.7462 14.5624 54.8475 14.3391 58.9527C14.2351 60.8349 14.6684 61.2226 16.6095 61.2114L65.8772 61.0419C67.5346 61.0419 67.93 60.6975 67.8279 59.0204C67.5668 54.7541 67.2659 50.4877 66.9254 46.2213C66.861 45.427 67.0143 45.092 67.8563 44.9809C68.7909 44.8642 68.7871 45.4006 68.825 46.0312C69.0924 50.3453 69.3648 54.6581 69.6423 58.9696C69.8088 61.5878 68.4939 62.9844 65.828 62.9581C60.0877 62.8978 54.3474 62.7792 48.6108 62.7567C41.391 62.729 34.1711 62.741 26.9512 62.7924C23.3564 62.815 19.7767 62.9505 16.1914 62.9976C13.4991 63.0352 12.2523 61.5106 12.4869 58.8209C12.7707 55.5609 12.8974 52.2896 13.1018 49.0221C13.1774 47.7308 13.272 46.4396 13.3761 44.9941Z" fill="white"/>
<path d="M66.5328 13.6478C64.6616 14.0242 64.6408 13.9753 64.5405 12.349C64.374 9.58405 64.2 6.81906 63.9729 4.06725C63.8159 2.20384 63.568 1.93657 61.746 1.91963C52.9218 1.83304 44.0956 1.75587 35.2694 1.75023C30.2461 1.75023 25.221 1.87822 20.1977 1.95727C18.5706 1.98362 18.2282 2.23961 18.0882 3.79621C17.8214 6.72119 17.6322 9.6537 17.39 12.5806C17.3389 13.2073 17.706 14.1296 16.4232 14.0073C15.3296 13.9019 15.4961 13.2695 15.5604 12.5015C15.795 9.65683 15.9842 6.80903 16.128 3.95808C16.268 1.37567 17.4865 0.0618687 20.1012 0.0543398C34.1247 0.0166953 48.1482 0.00289778 62.1717 0.0129363C63.9729 0.0129363 65.4884 1.08204 65.6625 2.70452C66.0333 6.31275 66.2414 9.96238 66.5328 13.6478Z" fill="white"/>
<path d="M85.0022 18.6202C82.1642 22.1136 79.5495 25.3002 76.9593 28.5037C74.3395 31.7412 71.733 34.9893 69.1397 38.248C68.3526 39.2437 67.4199 39.6522 66.0917 39.351C65.9611 37.2467 65.8306 35.1706 65.6754 32.7199C64.9186 33.5989 64.3643 34.2257 63.8364 34.8807C63.0172 35.8952 62.1979 36.9098 61.4222 37.9582C60.62 39.0442 59.6229 39.5712 58.0582 39.1816C57.6571 32.2776 57.2503 25.3077 56.8379 18.2324H59.2634C59.5832 23.3238 59.9048 28.4228 60.2454 33.8361C61.0703 32.895 61.6625 32.0574 62.4136 31.3892C64.8127 29.2811 65.7511 26.8022 65.1192 23.5874C64.7881 21.9028 65.0605 20.0996 65.0605 18.2719H67.2893C67.5901 23.3991 67.8834 28.436 68.1785 33.486L68.4661 33.5914L72.4128 28.7428C74.9368 25.6428 77.4777 22.5578 79.9657 19.4295C80.469 18.799 80.976 18.5336 81.7801 18.5957C82.7356 18.6691 83.6986 18.6202 85.0022 18.6202ZM66.4322 19.0964L65.7814 19.1604C65.7814 19.5669 65.7681 19.9735 65.7814 20.3782C65.8665 22.6858 65.999 24.9915 66.0179 27.2991C66.0138 27.9035 65.8149 28.4907 65.4503 28.9743C63.8137 31.0033 62.0976 32.9684 60.4005 34.9485C60.1259 35.2306 59.836 35.4977 59.5321 35.7484C59.3297 32.2456 59.1537 28.9724 58.9494 25.7162C58.8264 23.7059 58.6826 21.6976 58.5047 19.693C58.4782 19.3938 58.2172 19.1152 58.0639 18.8291L57.6855 18.9571C58.0639 25.4583 58.4423 31.9614 58.8207 38.8409C59.551 38.3854 60.1319 38.1633 60.5103 37.753C61.2784 36.9229 61.9312 35.9856 62.6407 35.0991C63.7948 33.6591 64.9565 32.2268 66.3395 30.5121C66.5287 33.4521 66.6782 35.9912 66.8333 38.5285L67.1701 38.7939C67.7263 38.3177 68.3677 37.9092 68.8218 37.3502C72.5907 32.718 76.3236 28.0576 80.0698 23.4067C81.1041 22.1205 82.1434 20.8362 83.1878 19.5537C83.0913 19.4013 82.9986 19.2488 82.9002 19.0964C82.0791 19.437 80.9968 19.5575 80.4784 20.1579C77.7331 23.3427 75.126 26.6441 72.4772 29.9098C70.8974 31.856 69.327 33.8078 67.5447 36.0157C67.0414 30.1544 67.0414 24.5906 66.4322 19.087V19.0964Z" fill="#D90280"/>
<path d="M21.4716 17.956C26.0124 17.956 30.4019 17.9222 34.7856 17.9749C36.3125 17.9918 37.5631 18.9574 37.8507 20.1865C38.1912 21.6471 37.6747 22.7952 36.462 23.6968C33.7261 25.7296 31.0187 27.7982 28.3869 29.7877L37.3947 39.293C36.199 39.293 35.043 39.165 33.9286 39.3249C32.5758 39.5132 31.7944 38.796 31.0168 37.9528C28.9621 35.7305 26.9111 33.4976 24.864 31.254L24.1507 31.6643V39.2948H20.5938C20.8813 32.2817 21.1708 25.2911 21.4716 17.956ZM34.954 23.7495L35.2586 23.5801C35.3608 23.5086 35.463 23.4333 35.5689 23.3637C36.6511 22.6465 37.5177 21.777 37.0466 20.3521C36.5755 18.9273 35.3892 18.7579 34.0743 18.7767C30.4492 18.8313 26.8222 18.835 23.1953 18.867C22.8781 18.8874 22.5623 18.9251 22.2493 18.98C21.973 25.5583 21.7044 32.0276 21.43 38.5834L23.1328 38.4855C23.322 32.9611 23.4866 27.5686 23.6701 21.9219C27.2366 21.9219 30.6024 21.9106 33.9683 21.9219C34.8632 21.9219 35.3097 22.3604 35.0411 23.3016C34.9502 23.3787 34.8519 23.4559 34.7686 23.5349L34.4924 23.7401L34.0894 24.1166L33.711 24.2521L33.7432 24.397L34.2748 24.3123L34.6721 23.9359L34.954 23.7495ZM24.4061 30.5538L34.2445 22.8686H24.4061V30.5538ZM25.1781 30.9697L25.5565 30.7815C27.5923 33.0157 29.6924 35.1972 31.643 37.503C32.7782 38.8412 34.0705 38.5363 35.2984 38.429C32.5335 35.4764 29.7554 32.5125 26.9641 29.5374L25.1781 30.9697Z" fill="#D90280"/>
<path d="M55.2681 18.0431V22.7054H42.5331V24.4239H55.9095V27.4354H52.9088C50.3754 27.4354 47.8439 27.4185 45.3106 27.4354C44.2567 27.4354 43.1726 27.5917 42.6618 26.1499V34.6989H56.3882V39.2314H39.311C39.2526 38.9435 39.2109 38.6525 39.1861 38.3599C39.0291 31.981 38.9023 25.6003 38.7037 19.2233C38.6696 18.1598 38.9761 17.8624 40.0281 17.8775C44.5859 17.9453 49.1456 17.9302 53.7035 17.9528C54.2048 17.9584 54.7024 18.0111 55.2681 18.0431ZM41.8595 21.9506H54.3713V18.8299H39.5854C39.714 25.4177 39.8427 31.8944 39.9638 38.4389H55.5728V35.482H41.8595V21.9506ZM43.288 25.2935C43.7856 26.6355 43.7856 26.6393 44.953 26.6543C45.46 26.6543 45.9652 26.6543 46.4666 26.6543H55.0733V25.2916L43.288 25.2935Z" fill="#D90280"/>
<path d="M18.7912 39.4223C18.5508 39.4709 18.3075 39.5043 18.0628 39.5221C12.9544 39.6237 7.84601 39.731 2.73761 39.8044C0.699925 39.8345 -0.289588 38.5697 0.0679999 36.5293C1.03103 30.8827 1.99973 25.2171 2.906 19.5498C3.03844 18.7197 3.36008 18.5202 4.1112 18.5032C8.66903 18.3997 13.2269 18.2416 17.7847 18.155C19.4591 18.123 20.5167 19.1357 20.3994 20.7054C19.9397 26.8152 19.4213 32.9192 18.9218 39.0252C18.8915 39.1615 18.8477 39.2945 18.7912 39.4223ZM18.1252 38.6299C18.218 37.6888 18.3277 36.7834 18.3996 35.8706C18.778 30.9768 19.1261 26.083 19.5348 21.1892C19.6672 19.5855 19.1242 18.9098 17.5085 18.9437C14.0045 19.0152 10.508 19.0849 7.00028 19.179C5.91806 19.2091 4.83773 19.3126 3.76307 19.3822C2.79247 25.1513 1.82188 30.7622 0.92507 36.3844C0.586402 38.4963 1.14076 39.0892 3.25412 39.0496C7.8952 38.9612 12.5382 38.8463 17.1792 38.7353C17.4536 38.7334 17.7393 38.6751 18.1252 38.6299Z" fill="#D90280"/>
<path d="M30.6566 50.5596C30.8458 50.8608 30.9763 51.2956 31.2506 51.4292C31.7355 51.6907 32.281 51.8206 32.8324 51.8056C33.0991 51.7812 33.5892 51.113 33.5059 50.9323C33.3167 50.5069 32.9043 50.138 32.5013 49.8632C32.1683 49.6373 31.6253 49.675 31.3452 49.4228C30.9271 49.035 30.3368 48.4271 30.4106 48.0205C30.5033 47.5066 31.1125 46.8761 31.6385 46.6916C32.944 46.2399 33.9392 46.9457 33.9297 48.4515C33.5627 48.0224 33.3999 47.6742 33.1332 47.5593C32.6744 47.3394 32.1704 47.2292 31.6612 47.2375C31.4493 47.2525 31.0444 47.8944 31.1239 48.0487C31.3503 48.416 31.6789 48.7102 32.0699 48.8957C32.5069 49.1272 33.0424 49.1781 33.4851 49.4039C34.3914 49.8707 34.5825 50.6236 34.1435 51.5177C33.7273 52.3666 32.5694 52.7675 31.4947 52.3816C30.7152 52.0936 30.1457 51.5986 30.6566 50.5596Z" fill="white"/>
<path d="M20.1409 39.8144C19.5885 43.4377 20.3131 42.7394 17.1232 42.8259C16.1621 42.8504 15.199 42.8259 14.0449 42.8259C14.1774 41.9319 14.2606 41.1319 14.4384 40.3414C14.4857 40.1344 14.8055 39.965 15.0344 39.8351C15.1631 39.7636 15.3636 39.8144 15.532 39.8144H20.1409ZM19.0625 40.5579C18.1165 40.5579 17.2235 40.6219 16.3475 40.5409C15.2123 40.4355 14.9152 40.9418 15.1271 42.0674C16.0221 42.0674 16.9454 42.0204 17.8611 42.0806C18.9263 42.1483 19.3841 41.7719 19.0625 40.5579Z" fill="#D90280"/>
<path d="M25.2367 46.8125H29.0207L29.0416 47.2153L26.0919 47.3489V49.0862L28.8202 49.2142V49.5794H26.0881V51.855H29.1153L29.104 52.3067C27.8893 52.3067 26.6766 52.3199 25.4638 52.2766C25.3805 52.2766 25.25 51.8493 25.2462 51.6197C25.2273 50.0706 25.2367 48.5216 25.2367 46.8125Z" fill="white"/>
<path d="M52.6532 51.8234L55.0598 51.9345V52.2921H51.4707C51.7223 51.8272 51.8737 51.3773 52.1651 51.0498C52.7459 50.3929 53.4592 49.8508 54.0117 49.1676C54.5206 48.5465 54.5793 47.8143 53.7752 47.3418C53.0467 46.9146 52.6135 47.3625 52.288 47.9912C52.166 48.1858 52.0267 48.3691 51.8718 48.5389L51.5123 48.3206C51.798 47.8632 51.9929 47.1461 52.3902 47.003C52.9938 46.7922 53.8489 46.7828 54.3863 47.0746C54.7647 47.2816 55.0428 48.1794 54.9293 48.6688C54.793 49.2523 54.2519 49.7981 53.7771 50.2386C53.3022 50.679 52.744 50.9331 52.218 51.2719L52.6532 51.8234Z" fill="white"/>
<path d="M59.7986 49.7248C59.6661 50.3177 59.6642 51.0536 59.3331 51.5863C59.0455 52.0512 58.3871 52.5519 57.8876 52.5462C57.3882 52.5406 56.5632 51.9816 56.4913 51.5656C56.2768 50.3901 56.2595 49.1874 56.4403 48.0063C56.514 47.5414 57.3427 46.877 57.8157 46.877C58.372 46.8901 59.0512 47.4416 59.4202 47.9404C59.7324 48.3696 59.6756 49.0603 59.7986 49.7248ZM59.0153 49.8095C58.9699 49.1469 59.0569 48.635 58.8772 48.2453C58.6974 47.8557 58.285 47.4247 57.8952 47.3268C57.6795 47.2722 57.076 47.835 57.0362 48.1644C56.9212 49.1998 56.9129 50.2443 57.0116 51.2814C57.04 51.5863 57.4998 52.0343 57.8082 52.0794C58.0863 52.1171 58.5877 51.7463 58.705 51.4451C58.9264 50.8786 58.9434 50.2424 59.0153 49.8095Z" fill="white"/>
<path d="M50.482 49.4898C50.3666 50.1599 50.4196 50.8733 50.1036 51.3589C49.7877 51.8445 49.1198 52.4016 48.6127 52.396C48.1057 52.3903 47.2373 51.7918 47.1597 51.3438C46.9645 50.1594 46.9677 48.951 47.1691 47.7676C47.2429 47.3328 48.0527 46.7267 48.52 46.7305C49.0517 46.7305 49.7271 47.2368 50.0563 47.7168C50.3855 48.1967 50.3609 48.9063 50.482 49.4898ZM47.4775 49.5614C47.5816 50.1618 47.6157 50.8036 47.8276 51.3796C47.9062 51.5375 48.0221 51.6742 48.1655 51.7778C48.3088 51.8814 48.4753 51.9488 48.6506 51.9744C48.9363 51.9744 49.4395 51.5979 49.4566 51.3608C49.5398 50.1651 49.5398 48.9651 49.4566 47.7695C49.4414 47.5436 48.9155 47.1879 48.6298 47.1916C48.3441 47.1954 47.9392 47.5304 47.8295 47.8128C47.6251 48.3454 47.5911 48.9459 47.4775 49.5595V49.5614Z" fill="white"/>
<path d="M45.7482 52.2465H42.3142L42.125 51.9134C42.7588 51.2282 43.4097 50.5544 44.017 49.8429C44.3689 49.4401 44.8533 49.0204 44.9289 48.5517C44.9952 48.1395 44.6849 47.5014 44.333 47.2492C44.1324 47.1043 43.4797 47.4732 43.1032 47.7198C42.878 47.8666 42.7929 48.2223 42.6453 48.4821L42.2064 48.2223C42.5261 47.7593 42.774 47.0139 43.1826 46.9048C43.824 46.7297 44.7303 46.7787 45.243 47.1344C45.6044 47.3829 45.716 48.3691 45.5457 48.8999C45.3565 49.4778 44.717 49.9163 44.2667 50.4057C43.9356 50.769 43.5913 51.1191 43.0918 51.6461L45.7785 51.8682C45.7747 51.9981 45.7614 52.1242 45.7482 52.2465Z" fill="white"/>
<path d="M37.037 52.4362V47.4427L35.0996 47.1792L35.128 46.8027H39.4134L39.4645 47.1265L37.5838 47.4615V52.4099L37.037 52.4362Z" fill="white"/>
<path d="M9.78486 36.0361C7.84367 36.0361 5.90247 36.0455 3.96128 36.0361C2.67472 36.0361 2.25848 35.6389 2.44768 34.3251C2.84878 31.466 3.35584 28.6201 3.81938 25.7704C3.83262 25.6876 3.87047 25.6104 3.8875 25.5276C4.48726 22.4351 4.48726 22.4596 7.60906 22.4106C10.4792 22.3655 13.3475 22.2393 16.2177 22.1829C17.8467 22.1528 18.227 22.6685 18.0359 24.2307C17.6177 27.6827 17.2129 31.1385 16.9007 34.6018C16.8174 35.5429 16.5223 35.8158 15.6122 35.7876C13.6748 35.7274 11.7317 35.7688 9.79242 35.7688L9.78486 36.0361ZM16.0285 34.967C16.4428 31.1536 16.8666 27.4211 17.2147 23.6736C17.2356 23.459 16.6585 22.9753 16.3652 22.9772C12.8253 23.0111 9.28726 23.1014 5.75111 23.2237C5.48245 23.2332 5.03594 23.5607 4.99432 23.7884C4.36428 27.2856 3.78533 30.7903 3.2026 34.295C3.1061 34.8804 3.27259 35.2832 3.98588 35.2643C7.96854 35.1702 11.9588 35.0705 16.0152 34.967H16.0285Z" fill="#D90280"/>
</g>
<defs>
<clipPath id="clip0_1107_59">
<rect width="85" height="63" fill="white"/>
</clipPath>
</defs>
</svg>
