<svg width="832" height="86" viewBox="0 0 832 86" fill="none" xmlns="http://www.w3.org/2000/svg">
<g filter="url(#filter0_d_1282_55)">
<path d="M11.083 10.6582C13.2011 -1.84764 24.034 -11 36.718 -11H795.441C808.281 -11 819.198 -1.62666 821.141 11.0657L827.418 52.0657C829.828 67.8095 817.644 82 801.717 82H29.7739C13.6798 82 1.45138 67.5264 4.13894 51.6583L11.083 10.6582Z" fill="url(#paint0_linear_1282_55)" shape-rendering="crispEdges"/>
<path d="M11.083 10.6582C13.2011 -1.84764 24.034 -11 36.718 -11H795.441C808.281 -11 819.198 -1.62666 821.141 11.0657L827.418 52.0657C829.828 67.8095 817.644 82 801.717 82H29.7739C13.6798 82 1.45138 67.5264 4.13894 51.6583L11.083 10.6582Z" stroke="url(#paint1_linear_1282_55)" stroke-width="3" shape-rendering="crispEdges"/>
</g>
<defs>
<filter id="filter0_d_1282_55" x="-247.733" y="-258.5" width="1326.96" height="596" filterUnits="userSpaceOnUse" color-interpolation-filters="sRGB">
<feFlood flood-opacity="0" result="BackgroundImageFix"/>
<feColorMatrix in="SourceAlpha" type="matrix" values="0 0 0 0 0 0 0 0 0 0 0 0 0 0 0 0 0 0 127 0" result="hardAlpha"/>
<feOffset dy="4"/>
<feGaussianBlur stdDeviation="125"/>
<feComposite in2="hardAlpha" operator="out"/>
<feColorMatrix type="matrix" values="0 0 0 0 0.0279375 0 0 0 0 0.0343551 0 0 0 0 0.075 0 0 0 1 0"/>
<feBlend mode="normal" in2="BackgroundImageFix" result="effect1_dropShadow_1282_55"/>
<feBlend mode="normal" in="SourceGraphic" in2="effect1_dropShadow_1282_55" result="shape"/>
</filter>
<linearGradient id="paint0_linear_1282_55" x1="415.5" y1="-11" x2="415.5" y2="82" gradientUnits="userSpaceOnUse">
<stop stop-color="#2B356F"/>
<stop offset="1" stop-color="#111634"/>
</linearGradient>
<linearGradient id="paint1_linear_1282_55" x1="415.5" y1="9.02723" x2="415.5" y2="82" gradientUnits="userSpaceOnUse">
<stop offset="0.413592" stop-color="#1F2753" stop-opacity="0"/>
<stop offset="1" stop-color="#394796"/>
</linearGradient>
</defs>
</svg>
